<svg xmlns="http://www.w3.org/2000/svg" xmlns:xlink="http://www.w3.org/1999/xlink" viewBox="0 0 500 500"><defs><style>.cls-1{isolation:isolate;}.cls-2{fill:url(#linear-gradient);}.cls-3{fill:url(#linear-gradient-2);}.cls-10,.cls-4,.cls-6{mix-blend-mode:screen;}.cls-4{fill:url(#linear-gradient-3);}.cls-11,.cls-13,.cls-14,.cls-15,.cls-5{mix-blend-mode:multiply;}.cls-5{fill:url(#radial-gradient);}.cls-6{opacity:0.7;fill:url(#radial-gradient-2);}.cls-7{fill:url(#linear-gradient-4);}.cls-8{fill:url(#linear-gradient-5);}.cls-9{fill:url(#linear-gradient-6);}.cls-10{fill:url(#linear-gradient-7);}.cls-11,.cls-13,.cls-14,.cls-15{opacity:0.8;}.cls-11{fill:url(#linear-gradient-8);}.cls-12{fill:#fff;}.cls-13{fill:url(#linear-gradient-9);}.cls-14{fill:url(#linear-gradient-10);}.cls-15{fill:url(#linear-gradient-11);}</style><linearGradient id="linear-gradient" x1="76.56" y1="76.54" x2="404.4" y2="404.38" gradientUnits="userSpaceOnUse"><stop offset="0" stop-color="#e0bfa4"/><stop offset="0.08" stop-color="#fff"/><stop offset="0.19" stop-color="#c67b4b"/><stop offset="0.26" stop-color="#c2824d"/><stop offset="0.29" stop-color="#bd7a4c"/><stop offset="0.36" stop-color="#b4694a"/><stop offset="0.4" stop-color="#b26443"/><stop offset="0.47" stop-color="#b1603f"/><stop offset="0.56" stop-color="#bb5b33"/><stop offset="0.68" stop-color="#c2713e"/><stop offset="0.71" stop-color="#c06e3c"/><stop offset="0.74" stop-color="#b96434"/><stop offset="0.77" stop-color="#ae5327"/><stop offset="0.79" stop-color="#a24119"/><stop offset="0.82" stop-color="#a74921"/><stop offset="0.87" stop-color="#b45f35"/><stop offset="0.93" stop-color="#c98257"/><stop offset="0.94" stop-color="#cb855a"/></linearGradient><linearGradient id="linear-gradient-2" x1="33.69" y1="33.7" x2="448.06" y2="448.07" gradientUnits="userSpaceOnUse"><stop offset="0.15" stop-color="#e0bfa4"/><stop offset="0.21" stop-color="#c67b4b"/><stop offset="0.29" stop-color="#c2824d"/><stop offset="0.31" stop-color="#bd7a4c"/><stop offset="0.36" stop-color="#b4694a"/><stop offset="0.4" stop-color="#b26443"/><stop offset="0.47" stop-color="#b1603f"/><stop offset="0.56" stop-color="#bb5b33"/><stop offset="0.68" stop-color="#c2713e"/><stop offset="0.9" stop-color="#a24119"/><stop offset="0.92" stop-color="#a74921"/><stop offset="0.95" stop-color="#b45f35"/><stop offset="0.99" stop-color="#c98257"/><stop offset="0.99" stop-color="#cb855a"/></linearGradient><linearGradient id="linear-gradient-3" x1="125.8" y1="107.5" x2="395.28" y2="416.72" gradientUnits="userSpaceOnUse"><stop offset="0" stop-color="#e0bfa4"/><stop offset="0.06" stop-color="#fff"/><stop offset="0.19" stop-color="#c67b4b"/><stop offset="0.26" stop-color="#c2824d"/><stop offset="0.28" stop-color="#bd7a4c"/><stop offset="0.32" stop-color="#b4694a"/><stop offset="0.39" stop-color="#b1603f"/><stop offset="0.4" stop-color="#b86d4d"/><stop offset="0.44" stop-color="#cd997c"/><stop offset="0.47" stop-color="#dbb599"/><stop offset="0.48" stop-color="#e0bfa4"/><stop offset="0.53" stop-color="#eedccd"/><stop offset="0.58" stop-color="#faf5f1"/><stop offset="0.61" stop-color="#fff"/><stop offset="0.69" stop-color="#cb855a"/><stop offset="0.78" stop-color="#c2713e"/><stop offset="0.86" stop-color="#ae5327"/><stop offset="0.92" stop-color="#a24119"/></linearGradient><radialGradient id="radial-gradient" cx="259.31" cy="220.88" r="69.81" gradientTransform="translate(-794.83 -794.74) scale(4.18 4.18)" gradientUnits="userSpaceOnUse"><stop offset="0.38" stop-color="#fff"/><stop offset="0.58" stop-color="#cb855a"/><stop offset="0.76" stop-color="#c2713e"/><stop offset="0.83" stop-color="#bd6a39"/><stop offset="0.92" stop-color="#b1572a"/><stop offset="1" stop-color="#a24119"/></radialGradient><radialGradient id="radial-gradient-2" cx="234.55" cy="291.2" r="85.59" gradientTransform="translate(-794.83 -794.74) scale(4.18 4.18)" gradientUnits="userSpaceOnUse"><stop offset="0.42" stop-color="#010101"/><stop offset="0.46" stop-color="#060403"/><stop offset="0.51" stop-color="#150d07"/><stop offset="0.57" stop-color="#2f1b0f"/><stop offset="0.63" stop-color="#52301a"/><stop offset="0.69" stop-color="#7f4a29"/><stop offset="0.75" stop-color="#b5693a"/><stop offset="0.76" stop-color="#c2713e"/><stop offset="0.9" stop-color="#cb855a"/><stop offset="0.98" stop-color="#fff"/></radialGradient><linearGradient id="linear-gradient-4" x1="162.76" y1="56.31" x2="331.65" y2="431.35" gradientUnits="userSpaceOnUse"><stop offset="0" stop-color="#c2824d"/><stop offset="0.04" stop-color="#bd7a4c"/><stop offset="0.14" stop-color="#b4694a"/><stop offset="0.17" stop-color="#b26443"/><stop offset="0.22" stop-color="#b1603f"/><stop offset="0.39" stop-color="#bb5b33"/><stop offset="0.66" stop-color="#a24119"/><stop offset="0.88" stop-color="#a24119"/><stop offset="1" stop-color="#fff"/></linearGradient><linearGradient id="linear-gradient-5" x1="162.8" y1="56.42" x2="331.68" y2="431.42" xlink:href="#linear-gradient-4"/><linearGradient id="linear-gradient-6" x1="66.55" y1="2.25" x2="406.81" y2="461.72" xlink:href="#linear-gradient-4"/><linearGradient id="linear-gradient-7" x1="343.92" y1="17.78" x2="266.11" y2="206.52" gradientUnits="userSpaceOnUse"><stop offset="0.02" stop-color="#fff"/><stop offset="0.29" stop-color="#cb855a"/><stop offset="0.56" stop-color="#c2713e"/><stop offset="0.57" stop-color="#b5693a"/><stop offset="0.61" stop-color="#7f4a29"/><stop offset="0.65" stop-color="#52301a"/><stop offset="0.69" stop-color="#2f1b0f"/><stop offset="0.72" stop-color="#150d07"/><stop offset="0.76" stop-color="#060403"/><stop offset="0.79" stop-color="#010101"/></linearGradient><linearGradient id="linear-gradient-8" x1="229.81" y1="390.21" x2="226.09" y2="484.6" gradientUnits="userSpaceOnUse"><stop offset="0" stop-color="#fff"/><stop offset="0.08" stop-color="#e7c5b7"/><stop offset="0.17" stop-color="#cf8c70"/><stop offset="0.23" stop-color="#c16944"/><stop offset="0.26" stop-color="#bb5b33"/><stop offset="0.66" stop-color="#a24119"/><stop offset="0.69" stop-color="#a54821"/><stop offset="0.74" stop-color="#ae5a37"/><stop offset="0.8" stop-color="#bd775b"/><stop offset="0.87" stop-color="#d1a08c"/><stop offset="0.94" stop-color="#ead4cb"/><stop offset="1" stop-color="#fff"/></linearGradient><linearGradient id="linear-gradient-9" x1="262.37" y1="219.29" x2="340.62" y2="45.42" xlink:href="#linear-gradient-8"/><linearGradient id="linear-gradient-10" x1="478.74" y1="-174.26" x2="556.99" y2="-348.15" gradientTransform="matrix(0.53, 0.85, 0.85, -0.53, 122.44, -221.41)" xlink:href="#linear-gradient-8"/><linearGradient id="linear-gradient-11" x1="220.79" y1="264.53" x2="117.28" y2="371.35" gradientTransform="matrix(1, -0.07, 0.07, 1, -10.01, 34.85)" xlink:href="#linear-gradient-8"/></defs><g class="cls-1"><g id="Layer_1" data-name="Layer 1"><path class="cls-2" d="M500,250c0,138.07-111.88,250-250,250S0,388.07,0,250,111.9,0,250,0,500,111.84,500,250Z"/><path class="cls-3" d="M462.35,250c0,117.31-95.12,212.34-212.37,212.34S37.62,367.31,37.62,250,132.71,37.62,250,37.62,462.35,132.72,462.35,250Z"/><path class="cls-4" d="M437.51,250c0,103.56-84,187.48-187.53,187.48S62.45,353.56,62.45,250,146.41,62.5,250,62.5,437.51,146.42,437.51,250Z"/><path class="cls-5" d="M430.09,250c0,99.39-80.65,180-180.11,180S69.91,349.39,69.91,250A180,180,0,0,1,250,69.94C349.44,69.94,430.09,150.52,430.09,250Z"/><path class="cls-6" d="M430.09,250c0,99.39-80.65,180-180.11,180S69.91,349.39,69.91,250A180,180,0,0,1,250,69.94C349.44,69.94,430.09,150.52,430.09,250Z"/><path class="cls-7" d="M250,37.62C132.71,37.62,37.62,132.72,37.62,250S132.71,462.34,250,462.34s212.37-95,212.37-212.34S367.23,37.62,250,37.62Zm0,421C134.93,458.59,41.31,365,41.31,250S134.93,41.35,250,41.35,458.63,134.93,458.63,250,365,458.59,250,458.59Z"/><path class="cls-8" d="M250,62.5C146.41,62.5,62.45,146.42,62.45,250s84,187.48,187.53,187.48S437.51,353.56,437.51,250,353.54,62.5,250,62.5Zm0,371.3C148.63,433.8,66.16,351.32,66.16,250S148.63,66.21,250,66.21,433.78,148.64,433.78,250,351.35,433.8,250,433.8Z"/><path class="cls-9" d="M250,0C111.9,0,0,111.84,0,250S111.9,500,250,500,500,388.07,500,250,388.12,0,250,0Zm0,496.29C114.2,496.29,3.64,385.76,3.64,250S114.2,3.69,250,3.69,496.33,114.17,496.33,250,385.83,496.29,250,496.29Z"/><path class="cls-10" d="M61,145.37C97.85,78.92,168.74,33.86,250,33.86c119.16,0,216.1,96.92,216.1,216.14a213.46,213.46,0,0,1-3.65,39.37c6.61,1,13.19,1.87,19.8,2.84,2.42.29,4.89.69,7.34,1A243.94,243.94,0,0,0,493.38,250c0-134.49-109-243.44-243.4-243.44A243.15,243.15,0,0,0,39.15,128.32C46.09,134.31,53.42,140,61,145.37Z"/><path class="cls-11" d="M418.52,385.07A215.85,215.85,0,0,1,250,466c-98.07,0-181.14-65.78-207.39-155.42-10.43-3.71-20.74-7.53-31.05-11.45C34.28,410,132.4,493.39,250,493.39A243.29,243.29,0,0,0,451.85,386C440.72,385.85,429.66,385.51,418.52,385.07Z"/><path class="cls-12" d="M489.57,293.22C528.84,29.12,174.8-90.49,39.15,128.32,169.47-108.51,543.11,27.73,489.57,293.22Z"/><path class="cls-12" d="M489.57,293.22C528.84,29.12,174.8-90.49,39.15,128.32,169.47-108.51,543.11,27.73,489.57,293.22Z"/><path class="cls-13" d="M454.48,284.44c33-228-264.68-331.23-378.8-142.32C185.31-62.29,499.44,55.29,454.48,284.44Z"/><path class="cls-12" d="M428.23,277.58C457.14,83.3,196.74-4.63,96.86,156.28,192.8-17.85,467.59,82.34,428.23,277.58Z"/><path class="cls-12" d="M413.33,429.6c-117,100.3-255.63,74.5-347.57-25.2C4.65,338-13.81,233.83,34,136.08-97.08,372.52,217.11,616.22,413.33,429.6Z"/><path class="cls-14" d="M387.31,404.5C211.85,553.89-34.07,356.87,65.07,159.65-49.58,361.41,217.23,564.62,387.31,404.5Z"/><path class="cls-15" d="M380.3,375.46c-140,137.74-364.44-21-293.15-196.34C2.85,359.15,245.62,522.32,380.3,375.46Z"/><path class="cls-12" d="M291.88,253.31a3.89,3.89,0,0,1,1.25,4.26l-16.52,42.95a3.83,3.83,0,1,0,7.23,2.51l13.63-44a3.91,3.91,0,0,1,3.62-2.57c8.3-.26,16.26-6.18,19.42-15.29,4-11.46.29-23.19-10-26.75s-20.43,3.35-24.41,14.82C283,238.38,285.54,248,291.88,253.31Z"/><path class="cls-12" d="M275.73,206.43a3.83,3.83,0,0,0-7.23-2.51l-7,20.06a2.32,2.32,0,0,1-3,1.47,2.12,2.12,0,0,1-1.19-2.68l7-20.27a3.83,3.83,0,1,0-7.23-2.51l-10.63,30.62c-1.32,3.81,11,9.44,9.73,13.23l-16.73,43.53a4,4,0,0,0,2,5,3.83,3.83,0,0,0,5.19-2.23s11.94-39.09,13.92-44.8c1.32-3.8,14.51-.55,15.83-4.36l10.63-30.62a3.83,3.83,0,0,0-7.23-2.51l-7,20.28a2.11,2.11,0,0,1-2.58,1.36,2.3,2.3,0,0,1-1.44-3Z"/><path class="cls-12" d="M320.29,288.94a8,8,0,0,0-8.49,13.63c.1.06,9.83,6.42.56,25.57-7.75,16-40.55,23.5-57.64,25.79-6.56-11.72-24.43-44.29-40.53-79C178,197,183,178.65,185.36,174.88,198.54,154,244.75,147,268,145.52l7.14,27.11a8,8,0,0,0,15.53-4.09L280.24,129l-6.33.14c-3.26.07-80.06,2.17-102.13,37.12-6.38,10.09-10.43,33.06,27.88,115.52,20.35,43.82,43.47,84.28,43.7,84.68l2.56,4.46,5.12-.45c6.27-.55,61.69-6.25,75.78-35.38C339.21,309.53,328,293.72,320.29,288.94Z"/><path class="cls-12" d="M301,307.65c9.51-20.28-3.17-28.74-3.3-28.82a2.19,2.19,0,0,0-2.38,3.67c.39.27,9.53,6.62,1.71,23.29-7.28,15.51-38.51,20.15-45.55,21-18.21-33-60.71-118.08-49.84-135.84,11.92-19.46,54.52-22.65,63.67-23.11L271,190.35a2.19,2.19,0,0,0,4.25-1.08l-6.62-25.92-1.74,0c-2.22.05-54.48,1.51-69,25.28-14.35,23.43,43.77,129.51,50.45,141.53l.69,1.24,1.42-.13C252.12,331.16,291.73,327.34,301,307.65Z"/><path class="cls-12" d="M279,332.92a7.45,7.45,0,1,0,7.44-7.44A7.45,7.45,0,0,0,279,332.92Zm13.43,0a6,6,0,1,1-6-6A6,6,0,0,1,292.39,332.92Z"/></g></g></svg>