<svg width="59" height="42" fill="none" xmlns="http://www.w3.org/2000/svg"><mask id="a" style="mask-type:alpha" maskUnits="userSpaceOnUse" x="0" y="0" width="59" height="42"><path d="M53.381 0H5.619C2.516 0 0 2.507 0 5.6v30.8C0 39.493 2.516 42 5.619 42h47.762C56.484 42 59 39.493 59 36.4V5.6C59 2.507 56.484 0 53.381 0Z" fill="#fff"/></mask><g mask="url(#a)"><path d="M53.381 0H5.619C2.516 0 0 2.507 0 5.6v30.8C0 39.493 2.516 42 5.619 42h47.762C56.484 42 59 39.493 59 36.4V5.6C59 2.507 56.484 0 53.381 0Z" fill="#FFBF00"/><path fill-rule="evenodd" clip-rule="evenodd" d="M5.619 5.6h8.429v30.8H5.619V5.6Z" fill="#00614A"/><path fill-rule="evenodd" clip-rule="evenodd" d="M14.048 5.6h8.428v30.8h-8.428V5.6Z" fill="#F60"/><path fill-rule="evenodd" clip-rule="evenodd" d="M25.286 5.6H53.38v30.8H25.286V5.6Z" fill="#98232E"/><path fill-rule="evenodd" clip-rule="evenodd" d="m35.217 29.725.163-.123.068.123c.093.168.348.162.517 0l.132-.132.112.126c.14.168.405.168.573 0 .124-.117.14-.12.22-.028.044.05.182.112.303.132.219.039.225.036.351-.219.112-.212.127-.296.101-.504a7.65 7.65 0 0 1-.042-.49c-.006-.24-.006-.243.258-.364.141-.067.31-.156.374-.201.104-.073.393-.524.393-.616 0-.023-.112-.056-.252-.079-.548-.084-.64-.476-.281-1.204.581-1.181.932-2.338.935-3.074 0-.328.014-.44.048-.364.13.288-.104 1.512-.458 2.394l-.14.356.135-.042c.073-.028.514-.272.974-.55 1.265-.755 1.7-.906 2.52-.862.686.04.978.216 1.462.89.258.356.505.611.955.986.966.801 1.006.868 1.05 1.81.048.951.029 1.007-.52 1.164-.463.134-.758.42-.834.82-.039.216.048.224.281.023l.169-.146.078.146c.102.196.315.196.492 0l.132-.14.135.14c.214.224.497.173.576-.112.014-.05.056-.034.14.061.155.18.551.258.596.112.017-.05-.017-.182-.07-.29-.23-.46-.304-.681-.31-.93 0-.348.077-.516.377-.801.365-.345.478-.784.203-.784-.169 0-.343-.205-.45-.532-.225-.658-.183-1.4.152-2.632.337-1.26.376-1.484.38-2.324 0-.68-.01-.798-.127-1.17a4.781 4.781 0 0 0-.32-.751l-.189-.336.245-.274c.75-.824.598-2.173-.31-2.688-.272-.163-.342-.177-.826-.168-.292 0-.73.05-.983.112a5.513 5.513 0 0 1-.989.106c-.472 0-.55-.011-.73-.14-.191-.134-.225-.196-.262-.504-.005-.067-.039-.129-.073-.14-.064-.028-.365.308-.404.465-.023.073-.042.067-.104-.028a1.608 1.608 0 0 1-.132-.342c-.076-.302.017-.532.28-.7l.212-.129-.118-.1c-.253-.208-.683-.068-.838.28-.045.092-.092.173-.106.173-.015 0-.099-.092-.186-.204-.326-.42-.214-1.047.225-1.24.23-.101.435-.023.477.181.065.314.27-.098.234-.47-.029-.246-.029-.258.104-.258.18 0 .561.314.682.56.14.28.127.728-.028 1.059l-.112.26.151-.039a.956.956 0 0 0 .562-.476c.118-.24.133-.708.029-.963-.104-.244-.093-.28.056-.196.258.14.393.291.497.56.096.238.101.297.05.546a1.707 1.707 0 0 1-.151.448c-.084.148-.084.173-.02.173.121 0 .38-.154.47-.28.044-.067.112-.224.148-.358l.065-.235.076.179c.106.252.309.484.562.627.272.157.385.168.244.023-.095-.098-.272-.784-.219-.849.028-.039.399.336.815.835.399.476.646.627 1.011.627.47 0 .739-.538.534-1.045-.127-.296-.399-.336-.556-.084a.435.435 0 0 0-.073.33c.028.152.017.169-.085.169-.14 0-.404-.224-.876-.75-.722-.799-1.602-1.476-2.234-1.723-.407-.162-1.275-.224-1.685-.123-.45.107-.984.448-1.27.812-.512.644-.517 1.498-.02 2.28l.14.223-.095.196a1.1 1.1 0 0 0 .028.966c.07.126.14.23.157.23.017 0 .034-.084.04-.182.014-.252.095-.42.236-.484.123-.062.205-.034.78.268.605.322 1.596.342 2.653.056.52-.134 1.13-.126 1.399.023.492.274.607.985.244 1.526-.157.23-.309.325-.814.51-.388.14-.478.15-1.357.14-.75-.012-1.02.008-1.326.092-.332.092-.534.1-1.512.07l-1.13-.04.127.14c.068.073.169.169.216.205.085.062.085.07-.045.132a.965.965 0 0 1-.365.067h-.233l-.028.263a1.346 1.346 0 0 0 0 .372c.028.093.02.104-.056.07a1.723 1.723 0 0 0-.298-.103 1.52 1.52 0 0 1-.351-.149c-.13-.084-.14-.084-.191.028-.04.101-.433.488-.492.488a.536.536 0 0 1-.028-.168c0-.09-.056-.328-.124-.527-.062-.196-.129-.414-.146-.481-.028-.101-.036-.107-.07-.028-.02.047-.05.182-.068.3a1.603 1.603 0 0 1-.129.42l-.1.206-.066-.179c-.067-.19-.182-.392-.224-.392-.014 0-.04.065-.056.14-.029.154-.301.588-.366.588-.028 0-.047-.123-.047-.271 0-.152-.02-.272-.048-.272-.023 0-.045.036-.045.084 0 .112-.233.456-.31.456-.036 0-.09.04-.123.09-.084.129-.154.112-.12-.028a.87.87 0 0 0-.023-.35l-.076-.294c-.011-.045-.093-.034-.27.042-.286.12-.382.1-.236-.056.056-.056.14-.246.183-.426.045-.179.112-.336.152-.355.05-.017.047.008-.014.117a.656.656 0 0 0-.079.236c0 .05-.037.168-.076.266-.04.1-.065.187-.056.196.011.014.118-.04.242-.118l.224-.14v.126c0 .07.028.252.056.409l.062.28.152-.093c.154-.095.303-.434.303-.694 0-.134.057-.112.08.028l.078.336.067.263.104-.168a1.68 1.68 0 0 0 .163-.4c.056-.219.135-.314.135-.154 0 .117.242.532.286.498.023-.017.068-.173.099-.347.067-.364.174-.61.244-.56a.067.067 0 0 1 .02.084c-.011.028.042.266.124.526.084.26.168.524.182.583.028.098.056.084.23-.12.113-.127.209-.267.22-.314.017-.067.042-.065.14.017.14.117.618.308.655.257.014-.017.028-.182.028-.364l.008-.336.14.037c.077.022.234.02.352 0l.214-.042-.189-.174a1.25 1.25 0 0 1-.236-.274c-.028-.056-.123-.112-.224-.12-.29-.034-.798-.412-.798-.589 0-.036.07.02.157.126.191.23.455.375.685.375h.175l-.107-.184a1.37 1.37 0 0 1-.132-.485c-.02-.266-.042-.308-.253-.504a2.79 2.79 0 0 1-.351-.392l-.118-.176-.062.21c-.034.117-.076.21-.09.21-.017 0-.084-.067-.14-.149a.689.689 0 0 0-.14-.15c-.02 0-.074.111-.127.251l-.093.244-.073-.14a1.884 1.884 0 0 0-.21-.308c-.077-.095-.119-.168-.09-.168.027 0 .123.095.21.21l.16.213.065-.157a.739.739 0 0 0 .033-.347c-.028-.168-.022-.174.029-.07.028.067.12.196.205.28l.151.168.104-.252c.104-.252.107-.252.152-.107.065.202.52.7.908.986.056.045.033-.112-.076-.462a1.544 1.544 0 0 1-.056-.373c0-.168-.034-.243-.197-.406-.23-.235-.304-.4-.349-.778-.016-.154-.056-.325-.09-.378-.047-.084-.056-.036-.042.246a2.11 2.11 0 0 1-.044.532l-.057.18-.045-.152a.975.975 0 0 0-.239-.322c-.112-.092-.182-.184-.168-.204.014-.017.126.067.244.19.183.188.225.208.248.126.028-.098 0-.52-.057-.812-.028-.15-.028-.15.113.028.101.14.154.297.197.577.056.356.084.42.331.7.149.177.281.308.287.297.01-.011.028-.46.042-.994.028-1.022 0-1.266-.189-1.582l-.095-.162.149-.216a1.66 1.66 0 0 0 .326-.812l.034-.252-.17.216c-.14.173-.204.212-.364.212s-.225-.033-.329-.187a1.383 1.383 0 0 0-.579-.443c-.084-.028-.112-.016-.112.056 0 .056-.042.208-.099.342l-.098.246-.208-.274c-.129-.168-.28-.297-.393-.336-.29-.1-.303-.092-.303.196 0 .428-.141.51-.394.224-.188-.224-.348-.269-.71-.216l-.282.042.057.168c.039.14.028.196-.062.356-.146.258-.337.37-.63.37-.134 0-.303.036-.376.084a1.23 1.23 0 0 1-.393.112c-.146.02-.301.056-.346.075-.067.034-.076.006-.056-.201.036-.32-.13-.552-.394-.552-.337 0-.491.4-.36.93.029.1.057.263.074.355.02.098.168.359.36.608.18.24.348.49.376.554.028.065.12.168.205.23l.155.112-.02-.216c-.022-.24.017-.28.112-.112.037.065.124.163.197.224.112.09.132.093.132.011 0-.056.023-.168.05-.263l.057-.168.084.23c.05.126.214.414.36.644.286.434.46.924.37 1.036-.036.047-.134.042-.337-.011-.16-.04-.356-.062-.438-.048-.168.028-.177 0-.076-.168.107-.176.09-.204-.12-.204-.245 0-.849-.157-1.082-.28-.225-.112-.281-.084-.346.196l-.12.518-.065.28.244-.028c.135-.02.31-.056.385-.09.079-.028.15-.045.157-.036.009.01-.028.123-.075.246l-.096.224.155-.04c.084-.022.21-.078.28-.122.124-.079.133-.073.231.131.118.252.213.244.233-.028.023-.274.093-.232.225.135.12.352.253.476.275.268a.51.51 0 0 1 .15-.252c.148-.14.26-.095.322.124.07.224-.078.459-.505.806-.871.694-1.371 1.646-1.518 2.856-.129 1.092.276 2.223 1.088 3.035.387.392 1.006.798.966.644-.163-.666-.157-1.932.011-2.147.029-.034.017.098-.02.29-.134.723-.075 1.297.273 2.644.31 1.22.27 1.742-.174 2.083-.14.112-.236.129-.618.123-.416-.005-.46.006-.596.146-.129.14-.295.588-.295.795 0 .112.093.098.281-.045l-.045-.005Zm-3.146-2.24a.623.623 0 0 0 .078-.266c0-.107.037-.135.217-.168l.216-.04-.14-.153c-.175-.18-.191-.32-.04-.32.15 0 .405-.207.444-.364a.302.302 0 0 0-.022-.212c-.085-.126-.245-.107-.273.033-.034.151-.084.154-.205 0-.18-.224-.185-.694-.008-.969.078-.128.078-.14-.029-.268-.112-.146-.196-.429-.14-.496.017-.02.107 0 .197.04.135.055.188.06.241 0 .169-.169-.014-.393-.28-.342-.105.02-.147 0-.164-.073-.01-.056-.103-.132-.21-.168-.186-.062-.188-.056-.188.112 0 .187-.085.224-.234.103-.126-.098-.247-.022-.247.154 0 .163.127.244.348.224.169-.014.177.157.014.398l-.117.176.092.177c.14.26.127.694-.028.91l-.112.168-.079-.135c-.107-.187-.253-.173-.295.028-.028.132 0 .19.12.33.085.093.206.169.27.169.163 0 .158.168-.01.341l-.133.135.208.042c.113.022.203.067.203.098 0 .112.14.47.188.47.028 0 .084-.056.12-.131l-.002-.003Zm.71-6.076c.467-.272.506-.963.068-1.148-.183-.073-.298-.028-.365.131-.056.126-.02.353.056.353.022 0 .042.04.042.09 0 .24-.71.35-1 .154-.101-.07-.14-.247-.056-.247.056 0 .104-.184.073-.313-.045-.174-.18-.235-.371-.168-.436.151-.422.829.02 1.12.365.232 1.163.246 1.54.028h-.006Zm-.289-.532c.028-.028.017-.084-.028-.132-.098-.103-.093-.257.014-.434.084-.131.093-.327.12-2.313.049-3.427.24-6 .493-6.616.1-.246.084-.252-.175-.014-.337.302-.59.7-.814 1.26-.427 1.064-.576 2.498-.576 5.555 0 1.736.01 1.96.084 2.128.073.151.076.21.028.375-.034.107-.048.21-.034.224.096.124.787.093.891-.036l-.003.003Z" fill="#FFB700"/><path fill-rule="evenodd" clip-rule="evenodd" d="M28.095 8.4h2.81v2.8h-2.81V8.4Zm19.667 0h2.81v2.8h-2.81V8.4ZM28.095 30.8h2.81v2.8h-2.81v-2.8Zm19.667 0h2.81v2.8h-2.81v-2.8Z" fill="#DA8210"/><path d="M53.38 1.4H5.62a4.207 4.207 0 0 0-4.214 4.2v30.8c0 2.32 1.887 4.2 4.214 4.2h47.762a4.207 4.207 0 0 0 4.214-4.2V5.6c0-2.32-1.887-4.2-4.214-4.2Z" stroke="#000" stroke-opacity=".1"/></g></svg>