<svg xmlns="http://www.w3.org/2000/svg" xmlns:xlink="http://www.w3.org/1999/xlink" viewBox="0 0 500 500"><defs><style>.cls-1{isolation:isolate;}.cls-2{fill:url(#linear-gradient);}.cls-3{fill:url(#linear-gradient-2);}.cls-10,.cls-4,.cls-6{mix-blend-mode:screen;}.cls-4{fill:url(#linear-gradient-3);}.cls-11,.cls-13,.cls-14,.cls-15,.cls-5{mix-blend-mode:multiply;}.cls-5{fill:url(#radial-gradient);}.cls-6{opacity:0.7;fill:url(#radial-gradient-2);}.cls-7{fill:url(#linear-gradient-4);}.cls-8{fill:url(#linear-gradient-5);}.cls-9{fill:url(#linear-gradient-6);}.cls-10{fill:url(#linear-gradient-7);}.cls-11,.cls-13,.cls-14,.cls-15{opacity:0.8;}.cls-11{fill:url(#linear-gradient-8);}.cls-12{fill:#fff;}.cls-13{fill:url(#linear-gradient-9);}.cls-14{fill:url(#linear-gradient-10);}.cls-15{fill:url(#linear-gradient-11);}</style><linearGradient id="linear-gradient" x1="77.83" y1="78.85" x2="405.65" y2="406.67" gradientUnits="userSpaceOnUse"><stop offset="0" stop-color="#ffd877"/><stop offset="0.08" stop-color="#fff"/><stop offset="0.19" stop-color="#f1d78d"/><stop offset="0.26" stop-color="#d9b258"/><stop offset="0.32" stop-color="#c59742"/><stop offset="0.36" stop-color="#b98635"/><stop offset="0.38" stop-color="#b88434"/><stop offset="0.47" stop-color="#b58031"/><stop offset="0.51" stop-color="#bf8d3d"/><stop offset="0.56" stop-color="#cc9f4c"/><stop offset="0.68" stop-color="#f0d57c"/><stop offset="0.7" stop-color="#eed279"/><stop offset="0.72" stop-color="#e6c871"/><stop offset="0.74" stop-color="#d9b764"/><stop offset="0.76" stop-color="#c79e50"/><stop offset="0.77" stop-color="#af8038"/><stop offset="0.79" stop-color="#9c6623"/><stop offset="0.81" stop-color="#a26e29"/><stop offset="0.84" stop-color="#b2843b"/><stop offset="0.89" stop-color="#cda757"/><stop offset="0.93" stop-color="#f2d97e"/><stop offset="0.94" stop-color="#f5dc81"/></linearGradient><linearGradient id="linear-gradient-2" x1="34.97" y1="36.01" x2="449.32" y2="450.36" gradientUnits="userSpaceOnUse"><stop offset="0.15" stop-color="#ffd877"/><stop offset="0.21" stop-color="#f1d78d"/><stop offset="0.29" stop-color="#d9b258"/><stop offset="0.33" stop-color="#c59742"/><stop offset="0.36" stop-color="#b98635"/><stop offset="0.38" stop-color="#b88434"/><stop offset="0.47" stop-color="#b58031"/><stop offset="0.51" stop-color="#bf8d3d"/><stop offset="0.56" stop-color="#cc9f4c"/><stop offset="0.68" stop-color="#f0d57c"/><stop offset="0.9" stop-color="#9c6623"/><stop offset="0.92" stop-color="#a26e29"/><stop offset="0.94" stop-color="#b2843b"/><stop offset="0.96" stop-color="#cda757"/><stop offset="0.99" stop-color="#f2d97e"/><stop offset="0.99" stop-color="#f5dc81"/></linearGradient><linearGradient id="linear-gradient-3" x1="127.08" y1="109.82" x2="396.53" y2="419" gradientUnits="userSpaceOnUse"><stop offset="0" stop-color="#ffd877"/><stop offset="0.06" stop-color="#fff"/><stop offset="0.19" stop-color="#f1d78d"/><stop offset="0.26" stop-color="#d9b258"/><stop offset="0.29" stop-color="#c59742"/><stop offset="0.32" stop-color="#b98635"/><stop offset="0.39" stop-color="#b58031"/><stop offset="0.39" stop-color="#b68132"/><stop offset="0.43" stop-color="#ddb057"/><stop offset="0.46" stop-color="#f6cd6e"/><stop offset="0.48" stop-color="#ffd877"/><stop offset="0.5" stop-color="#ffe092"/><stop offset="0.55" stop-color="#fff1cd"/><stop offset="0.59" stop-color="#fffbf1"/><stop offset="0.61" stop-color="#fff"/><stop offset="0.69" stop-color="#f5dc81"/><stop offset="0.78" stop-color="#f0d57c"/><stop offset="0.84" stop-color="#cda757"/><stop offset="0.89" stop-color="#aa7832"/><stop offset="0.92" stop-color="#9c6623"/></linearGradient><radialGradient id="radial-gradient" cx="289.82" cy="131.72" r="289.06" gradientTransform="translate(-2.32 -2.34) scale(1.01 1.01)" gradientUnits="userSpaceOnUse"><stop offset="0.38" stop-color="#fff"/><stop offset="0.58" stop-color="#f5dc81"/><stop offset="0.76" stop-color="#f0d57c"/><stop offset="0.8" stop-color="#ebce76"/><stop offset="0.85" stop-color="#dcbb67"/><stop offset="0.92" stop-color="#c49b4e"/><stop offset="0.99" stop-color="#a3702b"/><stop offset="1" stop-color="#9c6623"/></radialGradient><radialGradient id="radial-gradient-2" cx="187.29" cy="422.9" r="354.33" gradientTransform="translate(-2.32 -2.34) scale(1.01 1.01)" gradientUnits="userSpaceOnUse"><stop offset="0.42" stop-color="#010101"/><stop offset="0.46" stop-color="#060604"/><stop offset="0.5" stop-color="#15130c"/><stop offset="0.55" stop-color="#2f2918"/><stop offset="0.6" stop-color="#52492b"/><stop offset="0.65" stop-color="#7f7142"/><stop offset="0.71" stop-color="#b5a15e"/><stop offset="0.76" stop-color="#f0d57c"/><stop offset="0.9" stop-color="#f5dc81"/><stop offset="0.98" stop-color="#fff"/></radialGradient><linearGradient id="linear-gradient-4" x1="164.03" y1="58.6" x2="332.92" y2="433.65" gradientUnits="userSpaceOnUse"><stop offset="0" stop-color="#d9b258"/><stop offset="0.08" stop-color="#c59742"/><stop offset="0.14" stop-color="#b98635"/><stop offset="0.15" stop-color="#b88434"/><stop offset="0.22" stop-color="#b58031"/><stop offset="0.31" stop-color="#bf8d3d"/><stop offset="0.39" stop-color="#cc9f4c"/><stop offset="0.66" stop-color="#9c6623"/><stop offset="0.88" stop-color="#9c6623"/><stop offset="1" stop-color="#481e0f"/></linearGradient><linearGradient id="linear-gradient-5" x1="164.08" y1="58.72" x2="332.95" y2="433.71" xlink:href="#linear-gradient-4"/><linearGradient id="linear-gradient-6" x1="67.82" y1="4.56" x2="408.06" y2="464.01" xlink:href="#linear-gradient-4"/><linearGradient id="linear-gradient-7" x1="345.19" y1="20.08" x2="267.38" y2="208.82" gradientUnits="userSpaceOnUse"><stop offset="0.02" stop-color="#fff"/><stop offset="0.29" stop-color="#f5dc81"/><stop offset="0.56" stop-color="#f0d57c"/><stop offset="0.59" stop-color="#b5a15e"/><stop offset="0.63" stop-color="#7f7142"/><stop offset="0.67" stop-color="#52492b"/><stop offset="0.7" stop-color="#2f2918"/><stop offset="0.73" stop-color="#15130c"/><stop offset="0.76" stop-color="#060604"/><stop offset="0.79" stop-color="#010101"/></linearGradient><linearGradient id="linear-gradient-8" x1="231.09" y1="392.51" x2="227.36" y2="486.9" gradientUnits="userSpaceOnUse"><stop offset="0" stop-color="#fff"/><stop offset="0.06" stop-color="#f2e6d0"/><stop offset="0.16" stop-color="#ddc089"/><stop offset="0.23" stop-color="#d1a85d"/><stop offset="0.26" stop-color="#cc9f4c"/><stop offset="0.66" stop-color="#9c6623"/><stop offset="0.73" stop-color="#945f21"/><stop offset="0.82" stop-color="#7e4c1c"/><stop offset="0.94" stop-color="#5b2e13"/><stop offset="1" stop-color="#481e0f"/></linearGradient><linearGradient id="linear-gradient-9" x1="263.66" y1="221.56" x2="341.89" y2="47.72" xlink:href="#linear-gradient-8"/><linearGradient id="linear-gradient-10" x1="41.17" y1="622.45" x2="119.42" y2="448.55" gradientTransform="matrix(0.53, 0.85, 0.85, -0.53, -317.74, 575.44)" xlink:href="#linear-gradient-8"/><linearGradient id="linear-gradient-11" x1="257.27" y1="268.13" x2="153.76" y2="374.95" gradientTransform="matrix(1, -0.07, 0.07, 1, -45.37, 36.04)" xlink:href="#linear-gradient-8"/></defs><g class="cls-1"><g id="Layer_1" data-name="Layer 1"><path class="cls-2" d="M501.26,252.3c0,138.06-111.93,250-250,250s-250-111.94-250-250,112-250,250-250S501.26,114.14,501.26,252.3Z"/><path class="cls-3" d="M463.6,252.3c0,117.31-95.09,212.34-212.35,212.34S38.92,369.61,38.92,252.3,134,39.92,251.25,39.92,463.6,135,463.6,252.3Z"/><path class="cls-4" d="M438.73,252.3c0,103.55-83.94,187.48-187.48,187.48A187.47,187.47,0,0,1,63.77,252.3c0-103.58,83.93-187.51,187.48-187.51S438.73,148.72,438.73,252.3Z"/><path class="cls-5" d="M431.3,252.3c0,99.38-80.63,180-180,180s-180-80.66-180-180a180,180,0,1,1,360.07,0Z"/><path class="cls-6" d="M431.3,252.3c0,99.38-80.63,180-180,180s-180-80.66-180-180a180,180,0,1,1,360.07,0Z"/><path class="cls-7" d="M251.25,39.92C134,39.92,38.92,135,38.92,252.3S134,464.64,251.25,464.64s212.35-95,212.35-212.34S368.51,39.92,251.25,39.92Zm0,421c-115,0-208.58-93.6-208.58-208.58S136.23,43.65,251.25,43.65,459.88,137.22,459.88,252.3,366.3,460.88,251.25,460.88Z"/><path class="cls-8" d="M251.25,64.79C147.7,64.79,63.77,148.72,63.77,252.3A187.47,187.47,0,0,0,251.25,439.78c103.54,0,187.48-83.93,187.48-187.48S354.79,64.79,251.25,64.79Zm0,371.31c-101.34,0-183.76-82.48-183.76-183.8S149.91,68.5,251.25,68.5,435,150.93,435,252.3,352.61,436.1,251.25,436.1Z"/><path class="cls-9" d="M251.25,2.3c-138,0-250,111.84-250,250s112,250,250,250,250-111.94,250-250S389.33,2.3,251.25,2.3Zm0,496.28C115.48,498.58,5,388.06,5,252.3S115.48,6,251.25,6s246.3,110.49,246.3,246.32S387.08,498.58,251.25,498.58Z"/><path class="cls-10" d="M62.22,147.66c36.9-66.44,107.82-111.5,189-111.5,119.13,0,216.07,96.92,216.07,216.14a218,218,0,0,1-3.57,39.37c6.56,1,13.11,1.87,19.67,2.83,2.46.3,4.91.69,7.42,1a247.64,247.64,0,0,0,3.81-43.21c0-134.49-109-243.44-243.4-243.44A243.28,243.28,0,0,0,40.42,130.61Q50.92,139.59,62.22,147.66Z"/><path class="cls-11" d="M419.78,387.37a215.93,215.93,0,0,1-168.53,81c-98.1,0-181.13-65.78-207.42-155.42-10.37-3.71-20.72-7.53-31-11.45C35.59,412.29,133.72,495.69,251.25,495.69a243.15,243.15,0,0,0,201.82-107.4C442,388.15,430.84,387.81,419.78,387.37Z"/><path class="cls-12" d="M490.84,295.51C530.07,31.42,176.12-88.19,40.42,130.61,170.77-106.21,544.32,30,490.84,295.51Z"/><path class="cls-12" d="M490.84,295.51C530.07,31.42,176.12-88.19,40.42,130.61,170.77-106.21,544.32,30,490.84,295.51Z"/><path class="cls-13" d="M455.68,286.74C488.68,58.76,191.11-44.5,77,144.41,186.6-60,500.69,57.59,455.68,286.74Z"/><path class="cls-12" d="M429.46,279.87C458.36,85.6,197.94-2.33,98.17,158.58,194.07-15.56,468.84,84.63,429.46,279.87Z"/><path class="cls-12" d="M414.61,431.9C297.63,532.2,159,506.39,67.07,406.7,5.92,340.3-12.46,236.12,35.25,138.38-95.78,374.81,218.41,618.52,414.61,431.9Z"/><path class="cls-14" d="M388.51,406.79C213.1,556.18-32.75,359.17,66.37,162-48.26,363.71,218.49,566.92,388.51,406.79Z"/><path class="cls-15" d="M381.58,377.76c-140,137.74-364.46-21-293.14-196.35C4.13,361.45,246.89,524.62,381.58,377.76Z"/><path class="cls-12" d="M291.88,253.31a3.89,3.89,0,0,1,1.25,4.26l-16.52,42.95a3.83,3.83,0,1,0,7.23,2.51l13.63-44a3.91,3.91,0,0,1,3.62-2.57c8.3-.26,16.26-6.18,19.42-15.29,4-11.46.29-23.19-10-26.75s-20.43,3.35-24.41,14.82C283,238.38,285.54,248,291.88,253.31Z"/><path class="cls-12" d="M275.73,206.43a3.83,3.83,0,0,0-7.23-2.51l-7,20.06a2.32,2.32,0,0,1-3,1.47,2.12,2.12,0,0,1-1.19-2.68l7-20.27a3.83,3.83,0,1,0-7.23-2.51l-10.63,30.62c-1.32,3.81,11,9.44,9.73,13.23l-16.73,43.53a4,4,0,0,0,2,5,3.83,3.83,0,0,0,5.19-2.23s11.94-39.09,13.92-44.8c1.32-3.8,14.51-.55,15.83-4.36l10.63-30.62a3.83,3.83,0,0,0-7.23-2.51l-7,20.28a2.11,2.11,0,0,1-2.58,1.36,2.3,2.3,0,0,1-1.44-3Z"/><path class="cls-12" d="M320.29,288.94a8,8,0,0,0-8.49,13.63c.1.06,9.83,6.42.56,25.57-7.75,16-40.55,23.5-57.64,25.79-6.56-11.72-24.43-44.29-40.53-79C178,197,183,178.65,185.36,174.88,198.54,154,244.75,147,268,145.52l7.14,27.11a8,8,0,0,0,15.53-4.09L280.24,129l-6.33.14c-3.26.07-80.06,2.17-102.13,37.12-6.38,10.09-10.43,33.06,27.88,115.52,20.35,43.82,43.47,84.28,43.7,84.68l2.56,4.46,5.12-.45c6.27-.55,61.69-6.25,75.78-35.38C339.21,309.53,328,293.72,320.29,288.94Z"/><path class="cls-12" d="M301,307.65c9.51-20.28-3.17-28.74-3.3-28.82a2.19,2.19,0,0,0-2.38,3.67c.39.27,9.53,6.62,1.71,23.29-7.28,15.51-38.51,20.15-45.55,21-18.21-33-60.71-118.08-49.84-135.84,11.92-19.46,54.52-22.65,63.67-23.11L271,190.35a2.19,2.19,0,0,0,4.25-1.08l-6.62-25.92-1.74,0c-2.22.05-54.48,1.51-69,25.28-14.35,23.43,43.77,129.51,50.45,141.53l.69,1.24,1.42-.13C252.12,331.16,291.73,327.34,301,307.65Z"/><path class="cls-12" d="M279,332.92a7.45,7.45,0,1,0,7.44-7.44A7.45,7.45,0,0,0,279,332.92Zm13.43,0a6,6,0,1,1-6-6A6,6,0,0,1,292.39,332.92Z"/></g></g></svg>