<svg id="Layer_1" data-name="Layer 1" xmlns="http://www.w3.org/2000/svg" viewBox="0 0 499 499"><defs><style>.cls-1{fill:#3e9b2f;}.cls-2{fill:#45ac34;}.cls-3{fill:#fff;}</style></defs><circle class="cls-1" cx="249.5" cy="249.5" r="249.5"/><circle class="cls-2" cx="249.5" cy="249.5" r="190.79"/><path class="cls-3" d="M293.33,253.83a4,4,0,0,1,1.31,4.46l-17.26,44.84a4.12,4.12,0,0,0-.21,1.56,4,4,0,0,0,.4,1.52,4.15,4.15,0,0,0,.95,1.25,4,4,0,0,0,1.36.79,4.12,4.12,0,0,0,1.56.21,4,4,0,0,0,1.52-.4,3.88,3.88,0,0,0,1.25-.95,4.24,4.24,0,0,0,.8-1.36l14.22-45.89a4.06,4.06,0,0,1,3.78-2.69c8.66-.27,17-6.46,20.28-16,4.15-12,.31-24.21-10.43-27.93s-21.34,3.5-25.49,15.47C284,238.25,286.71,248.25,293.33,253.83Z" transform="translate(-0.15 -0.74)"/><path class="cls-3" d="M276.47,204.89a4.06,4.06,0,0,0-.19-3.08,4,4,0,0,0-7.44.46l-7.27,20.95a2.38,2.38,0,0,1-.46.82,2.61,2.61,0,0,1-.74.58,2.46,2.46,0,0,1-.91.24,2.3,2.3,0,0,1-.94-.12,2.16,2.16,0,0,1-1.18-1.14,2.19,2.19,0,0,1,0-1.65l7.33-21.16a3.93,3.93,0,0,0,.21-1.56,4,4,0,0,0-.4-1.52,3.88,3.88,0,0,0-.95-1.25,4,4,0,0,0-1.36-.79,3.94,3.94,0,0,0-1.56-.22,4.23,4.23,0,0,0-1.52.4,4.18,4.18,0,0,0-1.25,1,3.86,3.86,0,0,0-.79,1.36l-11.09,32c-1.39,4,11.53,9.84,10.16,13.81l-17.39,45.41a4.22,4.22,0,0,0,0,3,4.16,4.16,0,0,0,2,2.22,3.85,3.85,0,0,0,1.61.35,4.07,4.07,0,0,0,1.61-.33,3.92,3.92,0,0,0,1.34-.94,4,4,0,0,0,.85-1.41s12.47-40.82,14.55-46.77c1.37-4,15.14-.58,16.51-4.57l11.1-32a4,4,0,0,0-5.51-4.8,4.05,4.05,0,0,0-2,2.19l-7.35,21.17a2.18,2.18,0,0,1-3.52.95,2.61,2.61,0,0,1-.58-.74,2.41,2.41,0,0,1-.24-.91,2.3,2.3,0,0,1,.12-.94Z" transform="translate(-0.15 -0.74)"/><path class="cls-3" d="M323,291a8.39,8.39,0,1,0-8.87,14.24c.1,0,10.27,6.69.59,26.68-8.09,16.77-42.34,24.55-60.19,26.94-6.83-12.2-25.51-46.24-42.31-82.44-37.79-81.37-32.6-100.63-30.1-104.52,13.72-21.77,62-29.12,86.25-30.65l7.46,28.32a8.34,8.34,0,0,0,3.89,5.11,8.39,8.39,0,0,0,12.33-9.4l-10.86-41.16-6.61.15c-3.4.07-83.59,2.25-106.64,38.76-6.73,10.46-10.89,34.43,29.1,120.54,21.26,45.74,45.4,88,45.64,88.44l2.67,4.65,5.35-.48c6.54-.58,64.4-6.52,79.12-36.93C342.75,312.55,331,296,323,291Z" transform="translate(-0.15 -0.74)"/><path class="cls-3" d="M302.83,310.57c9.92-21.16-3.31-30-3.45-30.08a2.29,2.29,0,0,0-2.48,3.84c.41.27,9.94,6.91,1.78,24.3-7.62,16.19-40.21,21-47.56,21.93-19-34.46-63.38-123.29-52-141.8,12.44-20.33,56.91-23.65,66.47-24.14l6,23.51A2.28,2.28,0,1,0,276,187l-6.9-27.07h-1.82c-2.32,0-56.9,1.53-72.09,26.38-15,24.39,45.74,135.23,52.68,147.78l.72,1.31,1.52-.14C251.83,335.12,293.18,331.14,302.83,310.57Z" transform="translate(-0.15 -0.74)"/><path class="cls-3" d="M279.85,337a7.79,7.79,0,0,0,13.28,5.52,7.85,7.85,0,0,0,2.12-4,7.71,7.71,0,0,0-.44-4.5,7.76,7.76,0,0,0-7.2-4.79,7.78,7.78,0,0,0-7.76,7.76Zm14,0a6.27,6.27,0,1,1-1.84-4.4A6.23,6.23,0,0,1,293.86,337Z" transform="translate(-0.15 -0.74)"/></svg>