<svg xmlns="http://www.w3.org/2000/svg" xmlns:xlink="http://www.w3.org/1999/xlink" viewBox="0 0 500 500"><defs><style>.cls-1{isolation:isolate;}.cls-2{fill:url(#linear-gradient);}.cls-3{fill:url(#linear-gradient-2);}.cls-10,.cls-4,.cls-6{mix-blend-mode:screen;}.cls-4{fill:url(#linear-gradient-3);}.cls-11,.cls-13,.cls-14,.cls-15,.cls-5{mix-blend-mode:multiply;}.cls-5{fill:url(#radial-gradient);}.cls-6{opacity:0.7;fill:url(#radial-gradient-2);}.cls-7{fill:url(#linear-gradient-4);}.cls-8{fill:url(#linear-gradient-5);}.cls-9{fill:url(#linear-gradient-6);}.cls-10{fill:url(#linear-gradient-7);}.cls-11,.cls-13,.cls-14,.cls-15{opacity:0.8;}.cls-11{fill:url(#linear-gradient-8);}.cls-12{fill:#fff;}.cls-13{fill:url(#linear-gradient-9);}.cls-14{fill:url(#linear-gradient-10);}.cls-15{fill:url(#linear-gradient-11);}</style><linearGradient id="linear-gradient" x1="76.56" y1="76.55" x2="404.38" y2="404.37" gradientUnits="userSpaceOnUse"><stop offset="0" stop-color="#d9d9d9"/><stop offset="0.08" stop-color="#fff"/><stop offset="0.19" stop-color="#d7d8d8"/><stop offset="0.26" stop-color="#b5b4b4"/><stop offset="0.32" stop-color="#9d9d9d"/><stop offset="0.36" stop-color="#8c8c8c"/><stop offset="0.37" stop-color="#8b8b8b"/><stop offset="0.47" stop-color="#878787"/><stop offset="0.52" stop-color="#949494"/><stop offset="0.56" stop-color="#a3a3a2"/><stop offset="0.68" stop-color="#d3d3d3"/><stop offset="0.7" stop-color="#d0d0d0"/><stop offset="0.72" stop-color="#c6c6c6"/><stop offset="0.74" stop-color="#b5b5b5"/><stop offset="0.76" stop-color="#9d9d9c"/><stop offset="0.78" stop-color="#7f7f7e"/><stop offset="0.79" stop-color="#6f6f6e"/><stop offset="0.81" stop-color="#777776"/><stop offset="0.85" stop-color="#8d8d8c"/><stop offset="0.89" stop-color="#b0b0af"/><stop offset="0.94" stop-color="#dadada"/></linearGradient><linearGradient id="linear-gradient-2" x1="33.71" y1="33.71" x2="448.07" y2="448.07" gradientUnits="userSpaceOnUse"><stop offset="0.15" stop-color="#d9d9d9"/><stop offset="0.21" stop-color="#d7d8d8"/><stop offset="0.29" stop-color="#b5b4b4"/><stop offset="0.33" stop-color="#9d9d9d"/><stop offset="0.36" stop-color="#8c8c8c"/><stop offset="0.37" stop-color="#8b8b8b"/><stop offset="0.47" stop-color="#878787"/><stop offset="0.52" stop-color="#949494"/><stop offset="0.56" stop-color="#a3a3a2"/><stop offset="0.68" stop-color="#d3d3d3"/><stop offset="0.9" stop-color="#6f6f6e"/><stop offset="0.92" stop-color="#777776"/><stop offset="0.94" stop-color="#8d8d8c"/><stop offset="0.96" stop-color="#b0b0af"/><stop offset="0.99" stop-color="#dadada"/></linearGradient><linearGradient id="linear-gradient-3" x1="125.83" y1="107.51" x2="395.29" y2="416.71" gradientUnits="userSpaceOnUse"><stop offset="0" stop-color="#d9d9d9"/><stop offset="0.06" stop-color="#fff"/><stop offset="0.19" stop-color="#d7d8d8"/><stop offset="0.26" stop-color="#b5b4b4"/><stop offset="0.29" stop-color="#9d9d9d"/><stop offset="0.32" stop-color="#8c8c8c"/><stop offset="0.39" stop-color="#878787"/><stop offset="0.43" stop-color="#b1b1b1"/><stop offset="0.46" stop-color="#cecece"/><stop offset="0.48" stop-color="#d9d9d9"/><stop offset="0.56" stop-color="#f1f1f1"/><stop offset="0.61" stop-color="#fff"/><stop offset="0.69" stop-color="#dadada"/><stop offset="0.78" stop-color="#d3d3d3"/><stop offset="0.83" stop-color="#afafaf"/><stop offset="0.89" stop-color="#818180"/><stop offset="0.92" stop-color="#6f6f6e"/></linearGradient><radialGradient id="radial-gradient" cx="287.96" cy="131.29" r="284.57" gradientTransform="translate(-6.29 -6.31) scale(1.03 1.03)" gradientUnits="userSpaceOnUse"><stop offset="0.38" stop-color="#fff"/><stop offset="0.58" stop-color="#dadada"/><stop offset="0.76" stop-color="#d3d3d3"/><stop offset="0.8" stop-color="#ccc"/><stop offset="0.86" stop-color="#b9b9b9"/><stop offset="0.93" stop-color="#9a9a99"/><stop offset="1" stop-color="#6f6f6e"/></radialGradient><radialGradient id="radial-gradient-2" cx="187.01" cy="417.94" r="348.86" gradientTransform="translate(-6.29 -6.31) scale(1.03 1.03)" gradientUnits="userSpaceOnUse"><stop offset="0.42" stop-color="#010101"/><stop offset="0.46" stop-color="#060606"/><stop offset="0.51" stop-color="#151515"/><stop offset="0.56" stop-color="#2f2f2f"/><stop offset="0.62" stop-color="#525252"/><stop offset="0.67" stop-color="#7f7f7f"/><stop offset="0.73" stop-color="#b5b5b5"/><stop offset="0.76" stop-color="#d3d3d3"/><stop offset="0.9" stop-color="#dadada"/><stop offset="0.98" stop-color="#fff"/></radialGradient><linearGradient id="linear-gradient-4" x1="162.78" y1="56.3" x2="331.67" y2="431.35" gradientUnits="userSpaceOnUse"><stop offset="0" stop-color="#b5b4b4"/><stop offset="0.07" stop-color="#9d9d9d"/><stop offset="0.14" stop-color="#8c8c8c"/><stop offset="0.15" stop-color="#8b8b8b"/><stop offset="0.22" stop-color="#878787"/><stop offset="0.31" stop-color="#949494"/><stop offset="0.39" stop-color="#a3a3a2"/><stop offset="0.66" stop-color="#6f6f6e"/><stop offset="0.88" stop-color="#6f6f6e"/><stop offset="1" stop-color="#252525"/></linearGradient><linearGradient id="linear-gradient-5" x1="162.83" y1="56.42" x2="331.7" y2="431.41" xlink:href="#linear-gradient-4"/><linearGradient id="linear-gradient-6" x1="66.54" y1="2.26" x2="406.79" y2="461.72" xlink:href="#linear-gradient-4"/><linearGradient id="linear-gradient-7" x1="343.91" y1="17.78" x2="266.1" y2="206.51" gradientUnits="userSpaceOnUse"><stop offset="0.02" stop-color="#fff"/><stop offset="0.29" stop-color="#dadada"/><stop offset="0.56" stop-color="#d3d3d3"/><stop offset="0.58" stop-color="#b5b5b5"/><stop offset="0.62" stop-color="#7f7f7f"/><stop offset="0.66" stop-color="#525252"/><stop offset="0.69" stop-color="#2f2f2f"/><stop offset="0.73" stop-color="#151515"/><stop offset="0.76" stop-color="#060606"/><stop offset="0.79" stop-color="#010101"/></linearGradient><linearGradient id="linear-gradient-8" x1="229.81" y1="390.21" x2="226.08" y2="484.6" gradientUnits="userSpaceOnUse"><stop offset="0" stop-color="#fff"/><stop offset="0.08" stop-color="#dfdfdf"/><stop offset="0.2" stop-color="#b4b4b3"/><stop offset="0.26" stop-color="#a3a3a2"/><stop offset="0.66" stop-color="#6f6f6e"/><stop offset="0.73" stop-color="#676766"/><stop offset="0.84" stop-color="#515151"/><stop offset="0.97" stop-color="#2e2e2e"/><stop offset="1" stop-color="#252525"/></linearGradient><linearGradient id="linear-gradient-9" x1="262.4" y1="219.27" x2="340.62" y2="45.43" xlink:href="#linear-gradient-8"/><linearGradient id="linear-gradient-10" x1="-204.61" y1="1062.78" x2="-126.35" y2="888.86" gradientTransform="matrix(0.53, 0.85, 0.85, -0.53, -560.89, 1015.62)" xlink:href="#linear-gradient-8"/><linearGradient id="linear-gradient-11" x1="254.97" y1="301.12" x2="151.47" y2="407.92" gradientTransform="matrix(1, -0.07, 0.07, 1, -46.56, 0.68)" xlink:href="#linear-gradient-8"/></defs><g class="cls-1"><g id="Layer_1" data-name="Layer 1"><path class="cls-2" d="M500,250c0,138.07-111.93,250-250,250S0,388.07,0,250,111.91,0,250,0,500,111.84,500,250Z"/><path class="cls-3" d="M462.36,250c0,117.31-95.1,212.34-212.38,212.34S37.66,367.31,37.66,250,132.72,37.62,250,37.62,462.36,132.72,462.36,250Z"/><path class="cls-4" d="M437.52,250c0,103.56-84,187.48-187.54,187.48S62.49,353.56,62.49,250,146.46,62.5,250,62.5,437.52,146.42,437.52,250Z"/><path class="cls-5" d="M430.05,250c0,99.39-80.66,180-180.07,180S70,349.39,70,250A180,180,0,0,1,250,69.94C349.39,69.94,430.05,150.52,430.05,250Z"/><path class="cls-6" d="M430.05,250c0,99.39-80.66,180-180.07,180S70,349.39,70,250A180,180,0,0,1,250,69.94C349.39,69.94,430.05,150.52,430.05,250Z"/><path class="cls-7" d="M250,37.62C132.72,37.62,37.66,132.72,37.66,250S132.72,462.34,250,462.34s212.38-95,212.38-212.34S367.26,37.62,250,37.62Zm0,421C135,458.59,41.41,365,41.41,250S135,41.35,250,41.35,458.62,134.93,458.62,250,365,458.59,250,458.59Z"/><path class="cls-8" d="M250,62.5C146.46,62.5,62.49,146.42,62.49,250s84,187.48,187.49,187.48S437.52,353.56,437.52,250,353.54,62.5,250,62.5Zm0,371.3C148.66,433.8,66.23,351.32,66.23,250S148.66,66.21,250,66.21,433.77,148.64,433.77,250,351.34,433.8,250,433.8Z"/><path class="cls-9" d="M250,0C111.91,0,0,111.84,0,250S111.91,500,250,500,500,388.07,500,250,388.07,0,250,0Zm0,496.29C114.22,496.29,3.72,385.76,3.72,250S114.22,3.69,250,3.69,496.26,114.17,496.26,250,385.83,496.29,250,496.29Z"/><path class="cls-10" d="M61,145.37C97.9,78.92,168.77,33.86,250,33.86,369.11,33.86,466,130.78,466,250a216.1,216.1,0,0,1-3.59,39.37c6.57,1,13.16,1.87,19.75,2.84,2.41.29,4.88.69,7.37,1A247.75,247.75,0,0,0,493.35,250C493.35,115.51,384.4,6.56,250,6.56A243.33,243.33,0,0,0,39.14,128.32C46.14,134.31,53.46,140,61,145.37Z"/><path class="cls-11" d="M418.54,385.07A216,216,0,0,1,250,466c-98.06,0-181.09-65.78-207.39-155.42q-15.53-5.57-31-11.45C34.34,410,132.41,493.39,250,493.39A243.21,243.21,0,0,0,451.81,386C440.72,385.85,429.61,385.51,418.54,385.07Z"/><path class="cls-12" d="M489.57,293.22c39.2-264.1-314.72-383.71-450.43-164.9C169.5-108.51,543,27.73,489.57,293.22Z"/><path class="cls-12" d="M489.57,293.22c39.2-264.1-314.72-383.71-450.43-164.9C169.5-108.51,543,27.73,489.57,293.22Z"/><path class="cls-13" d="M454.44,284.44c33-228-264.64-331.23-378.7-142.32C185.31-62.29,499.41,55.29,454.44,284.44Z"/><path class="cls-12" d="M428.24,277.58C457.1,83.3,196.75-4.63,96.89,156.28,192.82-17.85,467.59,82.34,428.24,277.58Z"/><path class="cls-12" d="M413.31,429.6c-116.95,100.3-255.6,74.5-347.49-25.2C4.71,338-13.73,233.83,34,136.08-97,372.52,217.12,616.22,413.31,429.6Z"/><path class="cls-14" d="M387.22,404.5C211.84,553.89-34,356.87,65.12,159.65-49.51,361.41,217.18,564.62,387.22,404.5Z"/><path class="cls-15" d="M380.32,375.46c-140,137.74-364.46-21-293.11-196.34C2.9,359.15,245.64,522.32,380.32,375.46Z"/><path class="cls-12" d="M291.88,253.31a3.89,3.89,0,0,1,1.25,4.26l-16.52,42.95a3.83,3.83,0,1,0,7.23,2.51l13.63-44a3.91,3.91,0,0,1,3.62-2.57c8.3-.26,16.26-6.18,19.42-15.29,4-11.46.29-23.19-10-26.75s-20.43,3.35-24.41,14.82C283,238.38,285.54,248,291.88,253.31Z"/><path class="cls-12" d="M275.73,206.43a3.83,3.83,0,0,0-7.23-2.51l-7,20.06a2.32,2.32,0,0,1-3,1.47,2.12,2.12,0,0,1-1.19-2.68l7-20.27a3.83,3.83,0,1,0-7.23-2.51l-10.63,30.62c-1.32,3.81,11,9.44,9.73,13.23l-16.73,43.53a4,4,0,0,0,2,5,3.83,3.83,0,0,0,5.19-2.23s11.94-39.09,13.92-44.8c1.32-3.8,14.51-.55,15.83-4.36l10.63-30.62a3.83,3.83,0,0,0-7.23-2.51l-7,20.28a2.11,2.11,0,0,1-2.58,1.36,2.3,2.3,0,0,1-1.44-3Z"/><path class="cls-12" d="M320.29,288.94a8,8,0,0,0-8.49,13.63c.1.06,9.83,6.42.56,25.57-7.75,16-40.55,23.5-57.64,25.79-6.56-11.72-24.43-44.29-40.53-79C178,197,183,178.65,185.36,174.88,198.54,154,244.75,147,268,145.52l7.14,27.11a8,8,0,0,0,15.53-4.09L280.24,129l-6.33.14c-3.26.07-80.06,2.17-102.13,37.12-6.38,10.09-10.43,33.06,27.88,115.52,20.35,43.82,43.47,84.28,43.7,84.68l2.56,4.46,5.12-.45c6.27-.55,61.69-6.25,75.78-35.38C339.21,309.53,328,293.72,320.29,288.94Z"/><path class="cls-12" d="M301,307.65c9.51-20.28-3.17-28.74-3.3-28.82a2.19,2.19,0,0,0-2.38,3.67c.39.27,9.53,6.62,1.71,23.29-7.28,15.51-38.51,20.15-45.55,21-18.21-33-60.71-118.08-49.84-135.84,11.92-19.46,54.52-22.65,63.67-23.11L271,190.35a2.19,2.19,0,0,0,4.25-1.08l-6.62-25.92-1.74,0c-2.22.05-54.48,1.51-69,25.28-14.35,23.43,43.77,129.51,50.45,141.53l.69,1.24,1.42-.13C252.12,331.16,291.73,327.34,301,307.65Z"/><path class="cls-12" d="M279,332.92a7.45,7.45,0,1,0,7.44-7.44A7.45,7.45,0,0,0,279,332.92Zm13.43,0a6,6,0,1,1-6-6A6,6,0,0,1,292.39,332.92Z"/></g></g></svg>